# xmcd
#
# Track frame offsets: 
#        150
#        15543
#        29617
#        45437
#        60136
#        76117
#        92563
#        108505
#        122347
#        139742
#        156044
#        174372
#        199245
#        223330
#
# Disc length: 3226 seconds
#
# Revision: 0
# Processed by: cddbd v1.5.2PL0 Copyright (c) Steve Scherf et al.
# Submitted via: ExactAudioCopy v1.0b1
#
DISCID=ac0c980e
DTITLE=Bensé - Album
DYEAR=2009
DGENRE=Blues
TTITLE0=Au grand jamais
TTITLE1=Mon frére
TTITLE2=Petite 
TTITLE3=Quand je marche
TTITLE4=Celui là
TTITLE5=Angela
TTITLE6=Buvons
TTITLE7=Dans ma soucoupe
TTITLE8=Moshé
TTITLE9=et si...
TTITLE10=Sa peau
TTITLE11=Ma veuve 
TTITLE12=Après nous
TTITLE13=inconnu
EXTD=
EXTT0=
EXTT1=
EXTT2=
EXTT3=
EXTT4=
EXTT5=
EXTT6=
EXTT7=
EXTT8=
EXTT9=
EXTT10=
EXTT11=
EXTT12=
EXTT13=
PLAYORDER=
